<svg width="105" height="50" viewBox="0 0 105 50" fill="none" xmlns="http://www.w3.org/2000/svg">
<g clip-path="url(#clip0_1_5)">
<path d="M31 22.0359C33.6667 23.5755 33.6667 27.4245 31 28.9641L24.25 32.8612C21.5833 34.4008 18.25 32.4763 18.25 29.3971V21.6029C18.25 18.5237 21.5833 16.5992 24.25 18.1388L31 22.0359Z" fill="#04DCD3"/>
<rect x="11" y="14" width="27" height="23" rx="6" stroke="#384FFA" stroke-width="2"/>
<circle cx="25" cy="25" r="24" stroke="#4F05C7" stroke-width="2"/>
<path d="M63.69 20.605C63.31 21.705 62.945 22.725 62.595 23.665C62.255 24.595 61.92 25.48 61.59 26.32C61.26 27.16 60.93 27.965 60.6 28.735C60.28 29.495 59.95 30.25 59.61 31H58.245C57.905 30.25 57.57 29.495 57.24 28.735C56.92 27.965 56.59 27.16 56.25 26.32C55.92 25.48 55.58 24.595 55.23 23.665C54.88 22.725 54.52 21.705 54.15 20.605H55.755C56.295 22.185 56.825 23.705 57.345 25.165C57.865 26.625 58.4 27.995 58.95 29.275C59.5 28.005 60.035 26.64 60.555 25.18C61.075 23.71 61.6 22.185 62.13 20.605H63.69ZM66.4388 31H65.0438V23.2H66.4388V31ZM65.7338 21.79C65.4838 21.79 65.2688 21.71 65.0888 21.55C64.9188 21.38 64.8337 21.155 64.8337 20.875C64.8337 20.595 64.9188 20.375 65.0888 20.215C65.2688 20.045 65.4838 19.96 65.7338 19.96C65.9838 19.96 66.1938 20.045 66.3638 20.215C66.5438 20.375 66.6338 20.595 66.6338 20.875C66.6338 21.155 66.5438 21.38 66.3638 21.55C66.1938 21.71 65.9838 21.79 65.7338 21.79ZM73.8777 24.85C73.7077 24.71 73.4627 24.575 73.1427 24.445C72.8227 24.315 72.4727 24.25 72.0927 24.25C71.6927 24.25 71.3477 24.325 71.0577 24.475C70.7777 24.615 70.5477 24.815 70.3677 25.075C70.1877 25.325 70.0577 25.625 69.9777 25.975C69.8977 26.325 69.8577 26.7 69.8577 27.1C69.8577 28.01 70.0827 28.715 70.5327 29.215C70.9827 29.705 71.5827 29.95 72.3327 29.95C72.7127 29.95 73.0277 29.935 73.2777 29.905C73.5377 29.865 73.7377 29.825 73.8777 29.785V24.85ZM73.8777 19.6L75.2727 19.36V30.775C74.9527 30.865 74.5427 30.955 74.0427 31.045C73.5427 31.135 72.9677 31.18 72.3177 31.18C71.7177 31.18 71.1777 31.085 70.6977 30.895C70.2177 30.705 69.8077 30.435 69.4677 30.085C69.1277 29.735 68.8627 29.31 68.6727 28.81C68.4927 28.3 68.4027 27.73 68.4027 27.1C68.4027 26.5 68.4777 25.95 68.6277 25.45C68.7877 24.95 69.0177 24.52 69.3177 24.16C69.6177 23.8 69.9827 23.52 70.4127 23.32C70.8527 23.12 71.3527 23.02 71.9127 23.02C72.3627 23.02 72.7577 23.08 73.0977 23.2C73.4477 23.32 73.7077 23.435 73.8777 23.545V19.6ZM77.2357 27.115C77.2357 26.425 77.3357 25.825 77.5357 25.315C77.7357 24.795 78.0007 24.365 78.3307 24.025C78.6607 23.685 79.0407 23.43 79.4707 23.26C79.9007 23.09 80.3407 23.005 80.7907 23.005C81.8407 23.005 82.6457 23.335 83.2057 23.995C83.7657 24.645 84.0457 25.64 84.0457 26.98C84.0457 27.04 84.0457 27.12 84.0457 27.22C84.0457 27.31 84.0407 27.395 84.0307 27.475H78.6907C78.7507 28.285 78.9857 28.9 79.3957 29.32C79.8057 29.74 80.4457 29.95 81.3157 29.95C81.8057 29.95 82.2157 29.91 82.5457 29.83C82.8857 29.74 83.1407 29.655 83.3107 29.575L83.5057 30.745C83.3357 30.835 83.0357 30.93 82.6057 31.03C82.1857 31.13 81.7057 31.18 81.1657 31.18C80.4857 31.18 79.8957 31.08 79.3957 30.88C78.9057 30.67 78.5007 30.385 78.1807 30.025C77.8607 29.665 77.6207 29.24 77.4607 28.75C77.3107 28.25 77.2357 27.705 77.2357 27.115ZM82.5907 26.35C82.6007 25.72 82.4407 25.205 82.1107 24.805C81.7907 24.395 81.3457 24.19 80.7757 24.19C80.4557 24.19 80.1707 24.255 79.9207 24.385C79.6807 24.505 79.4757 24.665 79.3057 24.865C79.1357 25.065 79.0007 25.295 78.9007 25.555C78.8107 25.815 78.7507 26.08 78.7207 26.35H82.5907ZM92.9346 27.1C92.9346 27.72 92.8446 28.28 92.6646 28.78C92.4846 29.28 92.2296 29.71 91.8996 30.07C91.5796 30.43 91.1946 30.71 90.7446 30.91C90.2946 31.1 89.8046 31.195 89.2746 31.195C88.7446 31.195 88.2546 31.1 87.8046 30.91C87.3546 30.71 86.9646 30.43 86.6346 30.07C86.3146 29.71 86.0646 29.28 85.8846 28.78C85.7046 28.28 85.6146 27.72 85.6146 27.1C85.6146 26.49 85.7046 25.935 85.8846 25.435C86.0646 24.925 86.3146 24.49 86.6346 24.13C86.9646 23.77 87.3546 23.495 87.8046 23.305C88.2546 23.105 88.7446 23.005 89.2746 23.005C89.8046 23.005 90.2946 23.105 90.7446 23.305C91.1946 23.495 91.5796 23.77 91.8996 24.13C92.2296 24.49 92.4846 24.925 92.6646 25.435C92.8446 25.935 92.9346 26.49 92.9346 27.1ZM91.4796 27.1C91.4796 26.22 91.2796 25.525 90.8796 25.015C90.4896 24.495 89.9546 24.235 89.2746 24.235C88.5946 24.235 88.0546 24.495 87.6546 25.015C87.2646 25.525 87.0696 26.22 87.0696 27.1C87.0696 27.98 87.2646 28.68 87.6546 29.2C88.0546 29.71 88.5946 29.965 89.2746 29.965C89.9546 29.965 90.4896 29.71 90.8796 29.2C91.2796 28.68 91.4796 27.98 91.4796 27.1ZM97.2373 31.15C96.3773 31.13 95.7673 30.945 95.4073 30.595C95.0473 30.245 94.8673 29.7 94.8673 28.96V19.6L96.2623 19.36V28.735C96.2623 28.965 96.2823 29.155 96.3223 29.305C96.3623 29.455 96.4273 29.575 96.5173 29.665C96.6073 29.755 96.7273 29.825 96.8773 29.875C97.0273 29.915 97.2123 29.95 97.4323 29.98L97.2373 31.15ZM100.394 31H98.9988V23.2H100.394V31ZM99.6888 21.79C99.4388 21.79 99.2238 21.71 99.0438 21.55C98.8738 21.38 98.7888 21.155 98.7888 20.875C98.7888 20.595 98.8738 20.375 99.0438 20.215C99.2238 20.045 99.4388 19.96 99.6888 19.96C99.9388 19.96 100.149 20.045 100.319 20.215C100.499 20.375 100.589 20.595 100.589 20.875C100.589 21.155 100.499 21.38 100.319 21.55C100.149 21.71 99.9388 21.79 99.6888 21.79Z" fill="#384FFA"/>
</g>
<defs>
<clipPath id="clip0_1_5">
<rect width="105" height="50" fill="white"/>
</clipPath>
</defs>
</svg>
